<svg id="b1a966ad-548d-4448-b565-476c30e010f9" data-name="Layer 1" xmlns="http://www.w3.org/2000/svg" viewBox="0 0 64 64"><path d="M17,5.14c-3.85,2.08-5.72,5.57-5.72,10.69,0,7.08,3.67,16.15,9.85,24.38H23.5a76.4,76.4,0,0,1-4.63-24.38c0-5.57,1-9.65,3-12.42A18.49,18.49,0,0,0,17,5.14Z" style="fill:#ff5c25"/><path d="M34.06,3.25v37h2.06C39.19,32,41,22.94,41,15.83,41,6,37.71,3.71,34.06,3.25Z" style="fill:#ff5c25"/><rect x="30.66" y="43.2" width="2.68" height="6.6" style="fill:#ff5c25"/><path d="M23,15.83c0,7.11,1.82,16.17,4.89,24.38h2.06v-37C26.29,3.71,23,6,23,15.83Z" style="fill:#ff5c25"/><polygon points="39.56 43.2 37.37 49.8 39.97 49.8 42.17 43.2 39.56 43.2" style="fill:#ff5c25"/><polygon points="26.63 49.8 24.43 43.2 21.83 43.2 24.03 49.8 26.63 49.8" style="fill:#ff5c25"/><path d="M47,5.14A18.49,18.49,0,0,0,42.1,3.41c2,2.77,3,6.85,3,12.42A76.4,76.4,0,0,1,40.5,40.21h2.34C49,32,52.69,22.91,52.69,15.83,52.69,10.71,50.82,7.22,47,5.14Z" style="fill:#ff5c25"/><path d="M39.91,60.75a1.56,1.56,0,0,0,1.56-1.56V52.67H22.53v6.52a1.56,1.56,0,0,0,1.56,1.56Z" style="fill:#ff5c25"/></svg>