<svg id="bfcfa4c6-501f-4229-87e4-84f64e00e524" data-name="Layer 1" xmlns="http://www.w3.org/2000/svg" viewBox="0 0 512 512"><rect width="512" height="512" rx="32.5" style="fill:#ff6100"/><path d="M407.82,358.36l-15-15a65.08,65.08,0,0,0-43-19l-12.65-.61L314.8,301.32c36.21-37.25,65.82-76.41,83.85-111,26.61-51.09,19.27-74.74,8.42-85.58s-34.49-18.19-85.58,8.42c-34.61,18-73.77,47.64-111,83.85l-103-103L94,107.43l103,103c-36.21,37.25-66.78,77.37-84.81,112C85.61,373.5,93,397.15,103.8,408c5.34,5.35,13.79,9.84,27.1,9.84,13.71,0,32.57-4.76,58.48-18.26,34.61-18,74.73-48.6,112-84.81l22.36,22.35.61,12.65a65.08,65.08,0,0,0,19,43l15,15a34.95,34.95,0,1,0,49.42-49.42ZM180.6,382.72c-30.5,15.89-54.78,20.43-63.37,11.84s-4-32.87,11.84-63.37c18.26-35,50.15-76.18,88.06-114.1s78.1-68.84,113.14-87.1c20.29-10.57,37.83-16.12,49.83-16.12a33.58,33.58,0,0,1,4.13.25L318,180.33v-14H299v24.14l-23.91-3.37-2.65,18.81L290,208.38l-38.93,38.93-18.66-18.66-6.72,6.71c-28.24,28.24-52.68,58.77-68.83,86l-.33.54a24.49,24.49,0,0,0,20.93,36.87,24.52,24.52,0,0,0,12.5-3.47c1.71-1,41.91-24.07,86.49-69.15l6.71-6.72-18.66-18.66L299,226.2v10.28h19V212.34l23.9,3.37,2.66-18.82-14.25-2,67.32-67.33c1.53,11.9-4,31.19-15.86,54-18.26,35-49.19,75.22-87.1,113.14s-79.06,69.81-114.1,88.06Zm75.62-103.38c-23.75,23-48.16,42.42-71,56.59-1.67,1-3.33,2-4.92,3a5.4,5.4,0,0,1-7.39-7.39l.29-.5c14.1-23.73,35-50.27,59.28-75.46Zm138.17,115a16,16,0,0,1-22.56,0l-15-15a46.18,46.18,0,0,1-13.5-30.47L343,343l5.86.28a46.22,46.22,0,0,1,30.47,13.49l15,15A16,16,0,0,1,394.39,394.35Z" style="fill:#fff"/></svg>