<?xml version="1.0" encoding="utf-8"?>
<!-- Generator: Adobe Illustrator 26.0.0, SVG Export Plug-In . SVG Version: 6.00 Build 0)  -->
<svg version="1.1" id="bd3b18c3-973d-4364-9804-7ff967151f5f"
	 xmlns="http://www.w3.org/2000/svg" xmlns:xlink="http://www.w3.org/1999/xlink" x="0px" y="0px" viewBox="0 0 566.9 113.4"
	 style="enable-background:new 0 0 566.9 113.4;" xml:space="preserve">
<style type="text/css">
	.st0{fill:#FFFFFF;}
	.st1{font-family:'TrebuchetMS';}
	.st2{font-size:48.4285px;}
</style>
<path class="st0" d="M72.2,78.1l-3.3-3.3c-2.5-2.5-5.8-3.9-9.2-4.1L57,70.6l-4.8-4.8c7.1-7.1,13.2-15.1,18-23.8
	c5.7-11,4.1-16.1,1.8-18.4c-2.3-2.3-7.4-3.9-18.4,1.8c-8.7,4.9-16.8,10.9-23.8,18L7.7,21.4l-2.9,2.8l22.1,22.2
	c-7.2,7.1-13.3,15.2-18.2,24.1c-5.7,11-4.1,16-1.8,18.4c1.6,1.5,3.7,2.2,5.8,2.1c2.9,0,7-1,12.5-3.9c8.8-4.9,16.9-11.1,24.1-18.2
	l4.8,4.8l0.1,2.7c0.2,3.5,1.6,6.8,4.1,9.2l3.3,3.3c2.9,2.9,7.7,2.9,10.6,0C75.2,85.9,75.2,81.1,72.2,78.1L72.2,78.1L72.2,78.1z
	 M23.4,83.3c-6.6,3.4-11.8,4.4-13.6,2.5c-1.9-1.9-0.9-7.1,2.6-13.6c5.1-9.1,11.4-17.3,18.9-24.6c7.1-7.3,15.3-13.6,24.2-18.6
	c3.3-1.9,6.9-3.1,10.7-3.5c0.3,0,0.6,0,0.9,0L52.9,39.9v-3h-3.9v5.2l-5.1-0.7l-0.6,4l3.8,0.5l-8.4,8.4l-4-4l-1.4,1.4
	c-5.6,5.5-10.6,11.7-14.7,18.5v0.1c-1.5,2.5-0.7,5.7,1.7,7.2c1.7,1,3.8,1,5.4,0c6.7-4.2,12.9-9.2,18.4-14.8l1.4-1.4l-4-4l7.5-7.4
	v2.2H53v-5.2l5.1,0.7l0.6-4L55.6,43l14.5-14.5c0.3,2.6-0.9,6.7-3.4,11.6c-5.1,9-11.4,17.2-18.8,24.3C40.7,71.9,32.4,78.3,23.4,83.3
	L23.4,83.3z M39.6,61.2c-4.7,4.6-9.8,8.7-15.3,12.2l-1,0.6c-0.5,0.4-1.2,0.3-1.6-0.1c-0.4-0.4-0.4-1.1,0-1.5v-0.1
	c3.6-5.9,7.9-11.3,12.7-16.2L39.6,61.2z M69.3,85.9c-1.3,1.4-3.5,1.4-4.9,0c0,0,0,0,0,0l-3.3-3.3c-1.8-1.7-2.8-4.1-2.9-6.6v-1.3h1.3
	c2.5,0.1,4.8,1.1,6.6,2.9l3.3,3.3C70.7,82.3,70.7,84.5,69.3,85.9C69.3,85.8,69.3,85.8,69.3,85.9z"/>
<g>
	<text transform="matrix(1 0 0 0.95 77.6771 69.8691)" class="st1 st2">SafarTravelExpressGoa</text>
	<g>
		<text transform="matrix(1 0 0 0.95 77.6771 69.8691)" class="st0 st1 st2">SafarTravelExpressGoa</text>
	</g>
</g>
</svg>
