<svg id="a59648bd-8160-48c1-8aaf-fe05a2e2b463" data-name="bd3b18c3-973d-4364-9804-7ff967151f5f" xmlns="http://www.w3.org/2000/svg" xmlns:xlink="http://www.w3.org/1999/xlink" viewBox="0 0 566.93 113.39"><defs><linearGradient id="e91dca57-d581-4060-a0e8-287a2e3b1de4" x1="4.81" y1="56.17" x2="74.45" y2="56.17" gradientUnits="userSpaceOnUse"><stop offset="0" stop-color="#ffbf0b"/><stop offset="0.16" stop-color="#ffb60b"/><stop offset="0.43" stop-color="#ff9c0d"/><stop offset="0.76" stop-color="#ff730f"/><stop offset="0.98" stop-color="#ff5510"/></linearGradient><linearGradient id="aa0b9592-8a8d-4de1-9f4a-d183472599a6" x1="79.57" y1="57.63" x2="563.97" y2="57.63" xlink:href="#e91dca57-d581-4060-a0e8-287a2e3b1de4"/></defs><path d="M72.21,78.12l-3.28-3.27a14,14,0,0,0-9.24-4.1L57,70.62,52.2,65.87A107.45,107.45,0,0,0,70.22,42c5.71-11,4.13-16,1.81-18.38s-7.41-3.92-18.39,1.8a107.93,107.93,0,0,0-23.83,18L7.69,21.36,4.81,24.19,26.94,46.36a108.75,108.75,0,0,0-18.22,24c-5.67,11-4.14,16-1.82,18.36a7.83,7.83,0,0,0,5.84,2.12c2.93,0,7-1,12.55-3.92A109.21,109.21,0,0,0,49.34,68.75l4.8,4.8.13,2.72a14,14,0,0,0,4.09,9.24l3.28,3.28A7.51,7.51,0,0,0,72.26,78.17h0ZM23.4,83.35c-6.55,3.41-11.76,4.39-13.61,2.54s-.87-7.06,2.55-13.6A107.29,107.29,0,0,1,31.25,47.72,105.49,105.49,0,0,1,55.48,29.1a25.83,25.83,0,0,1,10.7-3.45,6.76,6.76,0,0,1,.9,0L52.86,39.87v-3H48.93v5.19l-5.15-.72-.57,4,3.77.54-8.36,8.36-4-4L33.17,51.7A98.68,98.68,0,0,0,18.42,70.16v.12a5.22,5.22,0,0,0,7.19,7.17A95,95,0,0,0,44,62.61l1.44-1.44-4-4,7.47-7.42v2.21H53V46.77l5.12.72.58-4.05L55.64,43,70.11,28.55c.33,2.55-.87,6.7-3.41,11.6A105.82,105.82,0,0,1,47.91,64.44,107.29,107.29,0,0,1,23.34,83.35Zm16.24-22.2A93.53,93.53,0,0,1,24.35,73.34L23.3,74a1.17,1.17,0,0,1-1.64-.15,1.19,1.19,0,0,1,0-1.49v-.1A93.25,93.25,0,0,1,34.39,56ZM69.32,85.86a3.47,3.47,0,0,1-4.89,0l0,0-3.28-3.28A9.82,9.82,0,0,1,58.23,76V74.76h1.26a9.91,9.91,0,0,1,6.56,2.9l3.27,3.28a3.46,3.46,0,0,1,0,4.89Z" style="fill:url(#e91dca57-d581-4060-a0e8-287a2e3b1de4)"/><text transform="translate(77.68 69.87) scale(1 0.95)" style="font-size:48.42854309082031px;font-family:TrebuchetMS, Trebuchet MS">Safar<tspan x="110.9" y="0" style="letter-spacing:-0.10986910697007038em">T</tspan><tspan x="133.7" y="0">ravelExpressGoa</tspan></text><path d="M79.66,68.36l1.73-4.13a13.79,13.79,0,0,0,6.83,2.16A6.6,6.6,0,0,0,92.67,65a4.61,4.61,0,0,0,1.68-3.66,5.48,5.48,0,0,0-.94-3.09q-.93-1.43-4.69-3.11l-2.79-1.24a11,11,0,0,1-5-3.73,9.24,9.24,0,0,1-1.41-5.19,7.82,7.82,0,0,1,2.74-6.11,10.28,10.28,0,0,1,7-2.42q5.74,0,8,1.77L96,42.08a11.56,11.56,0,0,0-2.89-1.26,12.19,12.19,0,0,0-3.59-.6,5.31,5.31,0,0,0-3.8,1.3,4.4,4.4,0,0,0-1.38,3.35,5.23,5.23,0,0,0,.49,2.29,5,5,0,0,0,1.39,1.73,21.3,21.3,0,0,0,3.63,2l2.84,1.28a11.23,11.23,0,0,1,5,3.81,10.12,10.12,0,0,1,1.43,5.63,7.88,7.88,0,0,1-3.13,6.29,12.77,12.77,0,0,1-8.38,2.58A14.41,14.41,0,0,1,79.66,68.36Z" style="fill:url(#aa0b9592-8a8d-4de1-9f4a-d183472599a6)"/><path d="M118.47,67.11q-2.7,3.21-8.25,3.21a7.3,7.3,0,0,1-5.17-2.06,6.72,6.72,0,0,1-2.19-5.11A7.52,7.52,0,0,1,106.23,57a14,14,0,0,1,8.6-2.52A10.51,10.51,0,0,1,118,55q0-5.84-5.48-5.84a9,9,0,0,0-6.48,2.16l-1.9-3.58a11.57,11.57,0,0,1,3.54-1.69,14.5,14.5,0,0,1,4.32-.71q5.5,0,8,2.38c1.66,1.59,2.5,4.11,2.5,7.57v8.63q0,3.16,2,4.22V70.3a8.75,8.75,0,0,1-4.1-.75A4.18,4.18,0,0,1,118.47,67.11ZM118,58.05a17,17,0,0,0-3-.45,8.79,8.79,0,0,0-5.55,1.67,4.84,4.84,0,0,0-2.16,3.93c0,2.5,1.56,3.75,4.66,3.75a7.78,7.78,0,0,0,6-3.08Z" style="fill:url(#aa0b9592-8a8d-4de1-9f4a-d183472599a6)"/><path d="M143.3,39.77a8.28,8.28,0,0,0-2.56-.45,4.35,4.35,0,0,0-3.39,1.48A5.4,5.4,0,0,0,136,44.55a6.88,6.88,0,0,0,.12,1.26h5.16V49.4h-5.16V69.87h-4.49V49.4H128V45.81h3.69A10.31,10.31,0,0,1,134,38.58,8.08,8.08,0,0,1,140.34,36a14.66,14.66,0,0,1,4.21.67Z" style="fill:url(#aa0b9592-8a8d-4de1-9f4a-d183472599a6)"/><path d="M161.81,67.11c-1.79,2.14-4.55,3.21-8.25,3.21a7.3,7.3,0,0,1-5.17-2.06,6.71,6.71,0,0,1-2.18-5.11A7.52,7.52,0,0,1,149.58,57a13.94,13.94,0,0,1,8.59-2.52,10.52,10.52,0,0,1,3.22.58q0-5.84-5.49-5.84a9,9,0,0,0-6.48,2.16l-1.89-3.58a11.5,11.5,0,0,1,3.53-1.69,14.55,14.55,0,0,1,4.32-.71q5.51,0,8,2.38t2.49,7.57v8.63q0,3.16,2,4.22V70.3a8.79,8.79,0,0,1-4.11-.75A4.26,4.26,0,0,1,161.81,67.11Zm-.42-9.06a17.14,17.14,0,0,0-3-.45,8.82,8.82,0,0,0-5.56,1.67,4.86,4.86,0,0,0-2.15,3.93q0,3.75,4.66,3.75a7.78,7.78,0,0,0,6-3.08Z" style="fill:url(#aa0b9592-8a8d-4de1-9f4a-d183472599a6)"/><path d="M186.71,49.92A5.12,5.12,0,0,0,179.58,51a7.5,7.5,0,0,0-1.78,5V69.87h-4.5V45.81h4.5v3.84a7.92,7.92,0,0,1,7.3-4.29,22.41,22.41,0,0,1,3.48.4Z" style="fill:url(#aa0b9592-8a8d-4de1-9f4a-d183472599a6)"/><path d="M204.75,41V69.87H200V41H189V37h27.26v4Z" style="fill:url(#aa0b9592-8a8d-4de1-9f4a-d183472599a6)"/><path d="M228.33,49.92A5.12,5.12,0,0,0,221.2,51a7.5,7.5,0,0,0-1.78,5V69.87h-4.5V45.81h4.5v3.84a7.92,7.92,0,0,1,7.3-4.29,22.41,22.41,0,0,1,3.48.4Z" style="fill:url(#aa0b9592-8a8d-4de1-9f4a-d183472599a6)"/><path d="M247.7,67.11q-2.7,3.21-8.26,3.21a7.3,7.3,0,0,1-5.16-2.06,6.72,6.72,0,0,1-2.19-5.11A7.52,7.52,0,0,1,235.46,57a14,14,0,0,1,8.6-2.52,10.51,10.51,0,0,1,3.21.58q0-5.84-5.48-5.84a9,9,0,0,0-6.48,2.16l-1.9-3.58A11.57,11.57,0,0,1,237,46.07a14.45,14.45,0,0,1,4.32-.71q5.5,0,8,2.38t2.49,7.57v8.63c0,2.11.67,3.52,2,4.22V70.3a8.72,8.72,0,0,1-4.1-.75A4.18,4.18,0,0,1,247.7,67.11Zm-.43-9.06a17,17,0,0,0-3-.45,8.79,8.79,0,0,0-5.55,1.67,4.84,4.84,0,0,0-2.16,3.93c0,2.5,1.56,3.75,4.66,3.75a7.78,7.78,0,0,0,6-3.08Z" style="fill:url(#aa0b9592-8a8d-4de1-9f4a-d183472599a6)"/><path d="M268,70.32h-1.18L255.93,45.74h4.91l6.7,16.85,6.83-16.85h4.71Z" style="fill:url(#aa0b9592-8a8d-4de1-9f4a-d183472599a6)"/><path d="M303.88,58.25H285.63a8.47,8.47,0,0,0,2.43,6.5,7.91,7.91,0,0,0,5.54,2A9.78,9.78,0,0,0,300,64.59l1.89,3.08a8.43,8.43,0,0,1-3.19,1.7,18.09,18.09,0,0,1-6,.95,11.53,11.53,0,0,1-8.11-3.08,11.73,11.73,0,0,1-3.71-9.12,12.55,12.55,0,0,1,3.8-9.55,11.37,11.37,0,0,1,8.07-3.21q5.42,0,8.49,2.9a9.66,9.66,0,0,1,3,7.39A8.93,8.93,0,0,1,303.88,58.25ZM293,49a7.24,7.24,0,0,0-5,1.85,6.58,6.58,0,0,0-2.2,4.35h14a5.9,5.9,0,0,0-1.71-4.31A6.81,6.81,0,0,0,293,49Z" style="fill:url(#aa0b9592-8a8d-4de1-9f4a-d183472599a6)"/><path d="M309.32,63.06V36h4.49V62.34a4,4,0,0,0,1.17,3,4.29,4.29,0,0,0,3.07,1.11v3.82Q309.32,70.32,309.32,63.06Z" style="fill:url(#aa0b9592-8a8d-4de1-9f4a-d183472599a6)"/><path d="M328.33,41v9.15h11.45V54H328.33V65.82H344v4.05H323.6V37h20.69v4Z" style="fill:url(#aa0b9592-8a8d-4de1-9f4a-d183472599a6)"/><path d="M364.61,69.87l-6.91-8.76-6.17,8.76h-5.25l9.2-12.31L347,45.81h5.06l5.67,8.27,6.36-8.27h5l-9.2,11.75L370,69.87Z" style="fill:url(#aa0b9592-8a8d-4de1-9f4a-d183472599a6)"/><path d="M377.94,68.54V79.3h-4.49V45.81h4.49v2a8.65,8.65,0,0,1,6.18-2.43q5.38,0,8.39,3.19t3,9.35a13.17,13.17,0,0,1-3,8.95q-3,3.47-8.75,3.47a12.15,12.15,0,0,1-3.44-.54A4.63,4.63,0,0,1,377.94,68.54Zm0-17.54V65a4.08,4.08,0,0,0,1.8,1.15,7.13,7.13,0,0,0,2.67.55q8.37,0,8.37-9c0-3-.66-5.27-2-6.67S385.35,49,382.44,49a5.79,5.79,0,0,0-2.32.63A7.76,7.76,0,0,0,377.94,51Z" style="fill:url(#aa0b9592-8a8d-4de1-9f4a-d183472599a6)"/><path d="M414.19,49.92A5.12,5.12,0,0,0,407.06,51a7.5,7.5,0,0,0-1.78,5V69.87h-4.49V45.81h4.49v3.84a7.92,7.92,0,0,1,7.31-4.29,22.44,22.44,0,0,1,3.47.4Z" style="fill:url(#aa0b9592-8a8d-4de1-9f4a-d183472599a6)"/><path d="M440.58,58.25H422.33a8.47,8.47,0,0,0,2.43,6.5,7.91,7.91,0,0,0,5.54,2,9.76,9.76,0,0,0,6.43-2.13l1.89,3.08a8.43,8.43,0,0,1-3.19,1.7,18.09,18.09,0,0,1-6,.95,11.55,11.55,0,0,1-8.11-3.08,11.76,11.76,0,0,1-3.71-9.12,12.52,12.52,0,0,1,3.81-9.55,11.34,11.34,0,0,1,8.06-3.21q5.41,0,8.49,2.9a9.63,9.63,0,0,1,3,7.39A8.93,8.93,0,0,1,440.58,58.25ZM429.68,49a7.2,7.2,0,0,0-5,1.85,6.5,6.5,0,0,0-2.2,4.35h14a5.93,5.93,0,0,0-1.7-4.31A6.84,6.84,0,0,0,429.68,49Z" style="fill:url(#aa0b9592-8a8d-4de1-9f4a-d183472599a6)"/><path d="M444,68.43l1.59-4q3.75,2.33,6,2.33c2.77,0,4.16-1.1,4.16-3.32q0-2.38-4-4.09a35.25,35.25,0,0,1-4.17-2,9.4,9.4,0,0,1-1.87-1.59,6.22,6.22,0,0,1-1.18-1.88,5.9,5.9,0,0,1-.39-2.15A5.4,5.4,0,0,1,446.45,47a9.78,9.78,0,0,1,5.93-1.66,19.86,19.86,0,0,1,7,1.66l-1.28,4a8.86,8.86,0,0,0-5.37-2,4.81,4.81,0,0,0-2.7.72,2.11,2.11,0,0,0-1.1,1.82c0,1.55.92,2.71,2.76,3.51l3.22,1.39a11.28,11.28,0,0,1,4.3,2.92,6.24,6.24,0,0,1,1.35,4.11,6,6,0,0,1-2.39,5.07,10.65,10.65,0,0,1-6.62,1.83A15.69,15.69,0,0,1,444,68.43Z" style="fill:url(#aa0b9592-8a8d-4de1-9f4a-d183472599a6)"/><path d="M463.62,68.43l1.58-4c2.51,1.55,4.52,2.33,6.05,2.33,2.78,0,4.17-1.1,4.17-3.32q0-2.38-4-4.09a34.82,34.82,0,0,1-4.18-2,9.4,9.4,0,0,1-1.87-1.59,6.42,6.42,0,0,1-1.18-1.88,5.9,5.9,0,0,1-.39-2.15A5.42,5.42,0,0,1,466.05,47,9.81,9.81,0,0,1,472,45.36,19.81,19.81,0,0,1,479,47l-1.27,4a8.88,8.88,0,0,0-5.37-2,4.84,4.84,0,0,0-2.71.72,2.13,2.13,0,0,0-1.1,1.82c0,1.55.92,2.71,2.77,3.51l3.21,1.39a11.33,11.33,0,0,1,4.31,2.92,6.24,6.24,0,0,1,1.35,4.11,6,6,0,0,1-2.39,5.07,10.67,10.67,0,0,1-6.62,1.83A15.63,15.63,0,0,1,463.62,68.43Z" style="fill:url(#aa0b9592-8a8d-4de1-9f4a-d183472599a6)"/><path d="M509.23,39.25l-2,3.71a12.17,12.17,0,0,0-7-2.52,10.75,10.75,0,0,0-8.59,3.64q-3.14,3.64-3.14,9.64a13.36,13.36,0,0,0,3.08,9.18A10.64,10.64,0,0,0,500,66.39a8.69,8.69,0,0,0,6.13-2.16v-7.7h-4.8V52.71h9.53V67a14.51,14.51,0,0,1-5.28,2.46,24.68,24.68,0,0,1-6.57.93q-7.17,0-11.32-4.62c-2.76-3.07-4.15-7.17-4.15-12.27s1.52-9.22,4.55-12.39,7.13-4.75,12.29-4.75A13.28,13.28,0,0,1,509.23,39.25Z" style="fill:url(#aa0b9592-8a8d-4de1-9f4a-d183472599a6)"/><path d="M516,57.78a12.71,12.71,0,0,1,3.16-9,10.74,10.74,0,0,1,8.31-3.43c3.62,0,6.44,1.1,8.44,3.29s3,5.24,3,9.13-1,6.94-3.07,9.18a10.78,10.78,0,0,1-8.37,3.36c-3.61,0-6.43-1.13-8.44-3.39S516,61.62,516,57.78Zm4.73,0q0,9.06,6.74,9.06a5.77,5.77,0,0,0,4.93-2.43,11,11,0,0,0,1.78-6.63q0-8.94-6.71-8.94a5.9,5.9,0,0,0-4.91,2.38A10.54,10.54,0,0,0,520.7,57.78Z" style="fill:url(#aa0b9592-8a8d-4de1-9f4a-d183472599a6)"/><path d="M557.92,67.11q-2.7,3.21-8.25,3.21a7.3,7.3,0,0,1-5.17-2.06,6.72,6.72,0,0,1-2.19-5.11A7.52,7.52,0,0,1,545.68,57a14,14,0,0,1,8.6-2.52,10.51,10.51,0,0,1,3.21.58q0-5.84-5.48-5.84a9,9,0,0,0-6.48,2.16l-1.89-3.58a11.39,11.39,0,0,1,3.53-1.69,14.55,14.55,0,0,1,4.32-.71q5.5,0,8,2.38c1.66,1.59,2.5,4.11,2.5,7.57v8.63q0,3.16,2,4.22V70.3a8.75,8.75,0,0,1-4.1-.75A4.18,4.18,0,0,1,557.92,67.11Zm-.43-9.06a17,17,0,0,0-3-.45A8.79,8.79,0,0,0,549,59.27a4.84,4.84,0,0,0-2.16,3.93c0,2.5,1.56,3.75,4.66,3.75a7.78,7.78,0,0,0,6-3.08Z" style="fill:url(#aa0b9592-8a8d-4de1-9f4a-d183472599a6)"/></svg>