<svg id="f6ea7a65-986d-468b-bf66-d8193614d839" data-name="e577bb18-60b1-4756-9d73-06ea545515af" xmlns="http://www.w3.org/2000/svg" viewBox="0 0 200 40"><path d="M29.67,29.65,28.5,28.49a4.92,4.92,0,0,0-3.27-1.44l-1-.05-1.7-1.7A38.08,38.08,0,0,0,29,16.85c2-3.89,1.46-5.69.64-6.51S27,9,23.09,11a37.91,37.91,0,0,0-8.42,6.38L6.81,9.55l-1,1,7.84,7.83a38.83,38.83,0,0,0-6.46,8.52c-2,3.89-1.47,5.69-.64,6.52a2.76,2.76,0,0,0,2.06.74A10.12,10.12,0,0,0,13,32.79a38.6,38.6,0,0,0,8.52-6.46l1.7,1.7,0,1a5,5,0,0,0,1.45,3.26l1.16,1.17a2.66,2.66,0,0,0,3.76-3.76ZM12.35,31.5c-2.32,1.21-4.17,1.56-4.82.9s-.31-2.5.9-4.82a38.31,38.31,0,0,1,6.7-8.71,37.46,37.46,0,0,1,8.63-6.6,9.09,9.09,0,0,1,3.79-1.22,1.71,1.71,0,0,1,.32,0l-5,5.05V15H21.39v1.84l-1.82-.26-.2,1.43,1.33.19-3,3-1.43-1.42-.51.51a35,35,0,0,0-5.22,6.54l0,0a1.86,1.86,0,0,0,.62,2.55,1.84,1.84,0,0,0,1.93,0,33.91,33.91,0,0,0,6.56-5.25l.51-.52-1.43-1.42,2.62-2.63v.79h1.45V18.54l1.82.26.2-1.44-1.09-.15,5.13-5.12a8,8,0,0,1-1.21,4.1,37.68,37.68,0,0,1-6.6,8.62A38.27,38.27,0,0,1,12.35,31.5Zm5.8-7.86A33.14,33.14,0,0,1,12.74,28l-.37.22a.41.41,0,0,1-.56-.56v0a32.51,32.51,0,0,1,4.51-5.74Zm10.49,8.75a1.2,1.2,0,0,1-1.71,0l0,0-1.16-1.16a3.52,3.52,0,0,1-1-2.33v-.44h.45a3.42,3.42,0,0,1,2.32,1l1.16,1.16a1.22,1.22,0,0,1,0,1.72Z" style="fill:#fff"/><g style="isolation:isolate"><text transform="translate(31.5 26.88)" style="isolation:isolate;font-size:24.584697723388672px;fill:#fce290;font-family:TrebuchetMS, Trebuchet MS">goaadventure</text><text transform="translate(181.59 26.88)" style="isolation:isolate;font-size:10.536297798156738px;fill:#fce290;font-family:TrebuchetMS, Trebuchet MS">.in</text></g><g style="isolation:isolate"><text transform="translate(31.5 26.88)" style="isolation:isolate;font-size:24.584697723388672px;fill:#fff;font-family:TrebuchetMS, Trebuchet MS">goaadventure</text><text transform="translate(181.59 26.88)" style="isolation:isolate;font-size:10.536297798156738px;fill:#fff;font-family:TrebuchetMS, Trebuchet MS">.in</text></g></svg>