<svg id="a8186015-90f8-47c9-abe8-d5daf28f5140" data-name="Layer 1" xmlns="http://www.w3.org/2000/svg" viewBox="0 0 64 64"><path d="M40.23,24.21c1.13-3.71.35-6.09-1.24-8.13-1.82-2.32-5.07-3-6.89-4.64a1.23,1.23,0,1,0-.2,0c-1.82,1.68-5.07,2.32-6.89,4.64-1.59,2-2.37,4.42-1.24,8.13Z" style="fill:#396ff6"/><path d="M40.33,47.8V25.61H23.67V47.8h5.11V39h0a2.86,2.86,0,0,1,.65-1.59c.68-.87,1.91-1.1,2.57-1.74.66.64,1.89.87,2.57,1.74A2.86,2.86,0,0,1,35.22,39h0V47.8Z" style="fill:#396ff6"/><path d="M32,8.68A.72.72,0,1,0,31.28,8,.72.72,0,0,0,32,8.68Z" style="fill:#396ff6"/><path d="M3.26,47.8H8.5L8.28,35.88h.66v-1H8.26L8.17,30h.77V29H8.15l-.08-4.72h.35v-1H8V21.59h.46v-1H8a2.11,2.11,0,1,0-4.22,0H3.33v1H3.8v1.74H3.33v1h.36L3.6,29H2.82v1h.76l-.09,4.84H2.82v1h.66ZM7,23.33H6.37V21.59H7ZM4.79,21.59h.59v1.74H4.79Z" style="fill:#396ff6"/><path d="M55.5,47.8h5.24l-.21-11.92h.65v-1h-.67L60.42,30h.76V29H60.4l-.09-4.72h.36v-1H60.2V21.59h.47v-1h-.44a2.11,2.11,0,1,0-4.22,0h-.43v1H56v1.74h-.46v1h.35L55.85,29h-.79v1h.77l-.09,4.84h-.68v1h.66Zm3.71-24.47h-.59V21.59h.59ZM57,21.59h.59v1.74H57Z" style="fill:#396ff6"/><path d="M15,47.8h2V44.89h0a1.26,1.26,0,0,1,.29-.71c.31-.4.86-.5,1.16-.79.3.29.85.39,1.15.79a1.26,1.26,0,0,1,.29.71h0V47.8h2.35V31.48h0V30h.44a4.2,4.2,0,0,0-.64-4.19c-.95-1.22-2.67-1.53-3.6-2.43-.93.9-2.65,1.21-3.6,2.43A4.2,4.2,0,0,0,14.25,30h.43v1.75L12.2,33.47V47.8H15ZM19.94,40H17V37.12h0a1.29,1.29,0,0,1,.29-.72c.31-.39.86-.49,1.16-.78.3.29.85.39,1.15.78a1.29,1.29,0,0,1,.29.72h0V40Zm.91-8.55H19.2V30h1.65ZM17.76,30v1.5H16.12V30Z" style="fill:#396ff6"/><path d="M41.71,30v1.5h0V47.8h2.35V44.89h0a1.26,1.26,0,0,1,.29-.71c.3-.4.85-.5,1.15-.79.3.29.85.39,1.16.79a1.26,1.26,0,0,1,.29.71h0V47.8H51.8V33.47l-2.48-1.74V30h.43a4.2,4.2,0,0,0-.64-4.19c-1-1.22-2.67-1.53-3.6-2.43-.93.9-2.65,1.21-3.6,2.43A4.2,4.2,0,0,0,41.27,30Zm1.44,1.5V30H44.8v1.5ZM47,40h-2.9V37.12h0a1.29,1.29,0,0,1,.29-.72c.3-.39.85-.49,1.15-.78.3.29.85.39,1.16.78a1.29,1.29,0,0,1,.29.72h0Zm.92-8.55H46.24V30h1.64Z" style="fill:#396ff6"/><rect x="2.08" y="48.53" width="59.84" height="8.23" style="fill:#396ff6"/></svg>