<svg id="bdfd25d5-1fff-4794-b3e2-c2b8504c41ba" data-name="Layer 1" xmlns="http://www.w3.org/2000/svg" viewBox="0 0 64 64"><path d="M49.08,30.52a33.77,33.77,0,0,0-2.81-5.15l.08.13c-.32-.54-.65-1.06-1-1.6-1.52-2.57-2.85-4.62-4.18-6.46a27.78,27.78,0,0,0-2-2.44l0,0a5.1,5.1,0,0,0-1.85-1.44h0a1.42,1.42,0,0,0-.52-.1l-.3,0h0a5.19,5.19,0,0,0-3.81,2.63v0a6.05,6.05,0,0,0-.46,2.33,6.17,6.17,0,0,0,.58,2.62v0l3.91,8.71a4.06,4.06,0,0,0-4,4c0,.11,0,.22,0,.32h0V40L32,42.8,31.2,40V34.14c0-.09,0-.2,0-.3a4.05,4.05,0,0,0-4-4.05h0l3.91-8.7a6.08,6.08,0,0,0,.1-5l0,0a5.2,5.2,0,0,0-3.8-2.66h0a1.39,1.39,0,0,0-.3,0,1.3,1.3,0,0,0-.52.1h0a5.23,5.23,0,0,0-1.91,1.49h0a25,25,0,0,0-1.84,2.3l-.05.07c-1.34,1.85-2.66,3.89-4.18,6.46-.31.53-.64,1.06-1,1.58A35,35,0,0,0,15,30.3l-.08.22a18.37,18.37,0,0,0-1.37,7,18.67,18.67,0,0,0,1.09,6.33l0-.13a33.18,33.18,0,0,1,2,7l0,.2h-1.3a1.41,1.41,0,0,0-1.41,1.41h0v6.06a1.41,1.41,0,0,0,1.41,1.41H48.71a1.41,1.41,0,0,0,1.41-1.41h0V52.33a1.41,1.41,0,0,0-1.41-1.41H47.4a35.35,35.35,0,0,1,2.1-7.45l-.08.24A18.84,18.84,0,0,0,49,30.39l0,.13ZM17.27,42.77a16,16,0,0,1-.86-5.2,16.24,16.24,0,0,1,1.19-6.09l0,.11a31.6,31.6,0,0,1,2.6-4.74l-.07.12c.33-.54.67-1.09,1-1.63,1.47-2.49,2.76-4.47,4-6.23a25.43,25.43,0,0,1,1.75-2.19l0,0c.16-.17.35-.38.52-.53a2.16,2.16,0,0,1,1.36,1h0a3.29,3.29,0,0,1,.17,1.07,3.35,3.35,0,0,1-.33,1.45v0L23.13,32a1.37,1.37,0,0,0-.12.58h0V44.76a1.41,1.41,0,0,0,2.82,0h0V34.14c0-2.4,2.53-2.39,2.54,0v6.07h0a1.29,1.29,0,0,0,.06.4h0L30.59,48v2.93H19.46a35.07,35.07,0,0,0-2.27-8.38l.08.23Zm30,14.2H16.73V53.75H47.29Zm-.52-14.25a34.65,34.65,0,0,0-2.18,8l0,.19H33.44V48L35.6,40.6a1.18,1.18,0,0,0,.06-.39h0V34.14c0-1.83,1.48-1.92,2.11-1.28A1.75,1.75,0,0,1,38.2,34v.12h0V44.75a1.41,1.41,0,1,0,2.82,0h0V32.62a1.31,1.31,0,0,0-.13-.59h0L35.44,19.89a3.25,3.25,0,0,1-.31-1.42,3.43,3.43,0,0,1,.17-1.07v0a2.19,2.19,0,0,1,1.36-1h0a7.47,7.47,0,0,1,.55.57A23.84,23.84,0,0,1,38.87,19l.05.07c1.27,1.77,2.55,3.75,4,6.24.32.55.66,1.1,1,1.64a31.88,31.88,0,0,1,2.44,4.41l.08.2a15.81,15.81,0,0,1,1.15,6,16.08,16.08,0,0,1-.88,5.26l0-.11ZM14.42,25.09a1.43,1.43,0,0,0,.15-.63,1.41,1.41,0,0,0-.78-1.26h0L6.24,19.43a1.3,1.3,0,0,0-.63-.15A1.41,1.41,0,0,0,5,22H5l7.54,3.77a1.33,1.33,0,0,0,.63.15,1.4,1.4,0,0,0,1.26-.77Zm1.5-7.17a1.44,1.44,0,0,0,1,.43,1.42,1.42,0,0,0,1.41-1.42,1.4,1.4,0,0,0-.43-1L6.61,4.61a1.41,1.41,0,0,0-2.4,1,1.39,1.39,0,0,0,.41,1h0Zm41.83,1.51L50.21,23.2a1.41,1.41,0,0,0,.64,2.67,1.37,1.37,0,0,0,.64-.15h0L59,22a1.41,1.41,0,0,0-.63-2.67,1.37,1.37,0,0,0-.64.15Zm-10.67-1.1h0a1.4,1.4,0,0,0,1-.41L59.39,6.61a1.43,1.43,0,0,0,.41-1,1.41,1.41,0,0,0-2.41-1L46.08,15.92a1.41,1.41,0,0,0,1,2.41ZM40.71,10.6a1.39,1.39,0,0,0,.65.16h0A1.4,1.4,0,0,0,42.61,10h0l1.94-3.73A1.41,1.41,0,0,0,42.06,5h0L40.11,8.7a1.36,1.36,0,0,0-.16.65,1.41,1.41,0,0,0,.75,1.25ZM21.38,10A1.41,1.41,0,0,0,24,9.33a1.37,1.37,0,0,0-.15-.64h0L21.94,5a1.4,1.4,0,0,0-1.24-.75,1.42,1.42,0,0,0-1.41,1.42,1.37,1.37,0,0,0,.15.64h0Z" style="fill:#ff5c25"/></svg>