<svg id="b166ef82-2f09-481b-8463-13d013b37d32" data-name="Layer 1" xmlns="http://www.w3.org/2000/svg" viewBox="0 0 64 64"><path d="M40.24,48.74a13.5,13.5,0,0,0,0-27H16A13.49,13.49,0,1,0,28.1,41.07,13.48,13.48,0,0,0,40.24,48.74ZM25.33,35.28A9.37,9.37,0,1,1,16,25.86H40.24a9.4,9.4,0,1,1-9.36,9.43,2.61,2.61,0,0,0-2.78-2.54A2.6,2.6,0,0,0,25.33,35.28Z" style="fill:#25c4ff"/><path d="M59.43,17a2,2,0,0,0-2,2V39.81A14.62,14.62,0,0,1,42.8,54.45H32.22a2,2,0,0,1-2-2.05V49a2.06,2.06,0,0,0-4.12,0V52.4a6.15,6.15,0,0,0,6.11,6.16H42.8A18.74,18.74,0,0,0,61.49,39.81V19A2.05,2.05,0,0,0,59.43,17Z" style="fill:#25c4ff"/><path d="M8.41,35.24a7.67,7.67,0,0,0,.92,3.6L24.82,27.5H16.14A7.74,7.74,0,0,0,8.41,35.24Z" style="fill:#25c4ff"/><path d="M13.73,42.56l10.13-7.42a4.18,4.18,0,0,1,.79-2.67L11.93,41.69A7.88,7.88,0,0,0,13.73,42.56Z" style="fill:#25c4ff"/><path d="M16.14,43a7.72,7.72,0,0,0,7.52-6l-8.11,5.93A5.9,5.9,0,0,0,16.14,43Z" style="fill:#25c4ff"/><path d="M42.08,15.28A4.11,4.11,0,1,0,38,11.17,4.11,4.11,0,0,0,42.08,15.28Zm0-6.85a2.75,2.75,0,1,1-2.74,2.74A2.74,2.74,0,0,1,42.08,8.43Z" style="fill:#25c4ff"/><path d="M50.25,21a3,3,0,1,0-3-3A3,3,0,0,0,50.25,21Zm0-4.66A1.65,1.65,0,1,1,48.6,18,1.66,1.66,0,0,1,50.25,16.33Z" style="fill:#25c4ff"/><path d="M53,11.46a3,3,0,1,0-3-3A3,3,0,0,0,53,11.46ZM53,6.8a1.65,1.65,0,1,1-1.65,1.65A1.65,1.65,0,0,1,53,6.8Z" style="fill:#25c4ff"/></svg>